<?xml version="1.0" encoding="utf-8"?>
<!-- Generator: Adobe Illustrator 15.0.0, SVG Export Plug-In . SVG Version: 6.00 Build 0)  -->
<!DOCTYPE svg PUBLIC "-//W3C//DTD SVG 1.1//EN" "http://www.w3.org/Graphics/SVG/1.1/DTD/svg11.dtd">
<svg version="1.1" id="Layer_1" xmlns="http://www.w3.org/2000/svg" xmlns:xlink="http://www.w3.org/1999/xlink" x="0px" y="0px"
	 width="800px" height="600px" viewBox="0 0 800 600" enable-background="new 0 0 800 600" xml:space="preserve">
<g>
	<path d="M629.697,56.854c-6.459-14.456-21.062-24.293-37.34-24.293c-16.153,0-30.658,9.69-37.188,23.968h-32.631
		c-4.754-20.767-23.379-36.308-45.563-36.308c-13.67,0-26.608,6.07-35.406,16.252l-6.908,4.022
		c-36.224,0.241-65.621,29.774-65.621,66.055v147.047H171.301c-39.962,0-72.473,32.512-72.471,72.471
		c0,4.76,3.857,8.617,8.617,8.617h15.349c4.119,34.629,32.755,61.832,68.005,63.738c10.129,20.314,24.591,38.976,42.984,55.089
		c28.698,25.143,64.443,41.851,103.316,48.71l-8.987,61.028h-5.59c-4.76,0-8.617,3.856-8.617,8.616c0,4.761,3.857,8.617,8.617,8.617
		h110.266c4.76,0,8.617-3.856,8.617-8.617c0-4.76-3.857-8.616-8.617-8.616h-87.256l8.644-58.678c7.739,0.775,15.574,1.18,23.48,1.18
		c112.768,0,204.513-80.605,204.513-179.683c0-23.083-9.223-44.599-25.97-60.582l-72.839-69.508h159.73
		c32.758,0,59.408-26.651,59.408-59.411C702.501,94.877,670.456,60.527,629.697,56.854z M386.272,201.646h78.064l16.539,15.782
		h-94.604V201.646z M140.195,334.686h33.72c0.826,15.58,3.9,30.789,9.067,45.346C160.918,375.219,143.736,357.192,140.195,334.686z
		 M191.18,334.686h197.354c4.758,0,8.617-3.857,8.617-8.618c0-4.759-3.858-8.616-8.617-8.616h-271.8
		c4.149-26.38,27.039-46.619,54.567-46.619h222.315c27.528,0,50.411,20.241,54.561,46.619H423c-4.758,0-8.617,3.857-8.617,8.617
		s3.859,8.617,8.617,8.617h25.176c-4.15,26.38-27.033,46.621-54.561,46.621H202.04C195.919,366.627,192.164,350.971,191.18,334.686z
		 M544.302,277.955c13.307,12.699,20.634,29.787,20.634,48.113c0,89.574-84.014,162.449-187.278,162.449
		c-73.048,0-136.423-36.68-167.092-89.979h183.051c39.961,0,72.471-32.51,72.471-72.472c0-39.96-32.51-72.47-72.471-72.47h-7.341
		v-18.937h112.661L544.302,277.955z M679.142,150.176v-3.169h1.039C679.877,148.081,679.533,149.14,679.142,150.176z
		 M475.562,126.135c-0.063,6.959-0.195,13.915-0.368,20.872h15.453v3.379c0,5.765,4.671,10.436,10.437,10.436
		c5.765,0,10.437-4.671,10.437-10.436v-3.379h12.651v3.379c0,5.765,4.672,10.436,10.437,10.436c5.766,0,10.436-4.671,10.436-10.436
		v-3.379h12.652v3.379c0,5.765,4.672,10.436,10.438,10.436c5.764,0,10.436-4.671,10.436-10.436v-3.379h12.652v3.379
		c0,5.765,4.672,10.436,10.437,10.436s10.436-4.671,10.436-10.436v-3.379h12.652v3.379c0,5.765,4.672,10.436,10.438,10.436
		c5.764,0,10.436-4.671,10.436-10.436v-3.379h12.652v3.379c0,5.765,4.672,10.436,10.436,10.436c2.038,0,3.933-0.593,5.539-1.603
		c-7.017,9.62-18.365,15.89-31.155,15.89H474.441l-88.167,0.142v-68.699c0-26.927,21.905-48.832,48.832-48.832h5.058
		c0.393,0.145,12.586,1.781,18.032-8.503c4.839-5.101,11.626-8.121,18.779-8.121c14.264,0,25.866,11.606,25.866,25.872
		c0,5.764,4.672,10.437,10.437,10.437h49.355c4.913,0,9.161-3.429,10.2-8.229c1.975-9.121,10.186-15.74,19.524-15.74
		c9.344,0,17.556,6.619,19.529,15.74c1.039,4.8,5.288,8.229,10.201,8.229h0.368c29.065,0,53.284,21.068,58.232,48.731H475.562z"/>
	<circle fill="#FF0000" cx="476.976" cy="66.965" r="13.557"/>
</g>
</svg>
